<svg width="17" height="18" viewBox="0 0 17 18" fill="none" xmlns="http://www.w3.org/2000/svg">
<path d="M15.6981 4.24195C15.1573 4.49522 14.5839 4.66155 13.9967 4.73545C14.6156 4.34352 15.0788 3.72671 15.3 2.99994C14.7192 3.36594 14.0824 3.62244 13.4187 3.76119C12.9729 3.25613 12.3819 2.92117 11.7378 2.80838C11.0936 2.6956 10.4323 2.81131 9.85665 3.13753C9.28101 3.46376 8.82328 3.98221 8.55463 4.61229C8.28598 5.24237 8.22145 5.94878 8.37109 6.6217C7.19321 6.55919 6.04091 6.23509 4.989 5.67044C3.93709 5.1058 3.0091 4.31323 2.26526 3.3442C2.00196 3.82303 1.8636 4.36736 1.86434 4.92144C1.86434 6.00894 2.38709 6.9697 3.18184 7.5322C2.71151 7.51652 2.25154 7.38203 1.84026 7.13995V7.17894C1.8404 7.90322 2.0771 8.60516 2.51023 9.16574C2.94336 9.72632 3.54626 10.1111 4.21671 10.2547C3.78011 10.38 3.32231 10.3984 2.87797 10.3087C3.067 10.9321 3.43543 11.4773 3.93168 11.868C4.42792 12.2587 5.02714 12.4753 5.64542 12.4874C5.03093 12.9984 4.32734 13.3762 3.57488 13.5991C2.82242 13.822 2.03585 13.8856 1.26013 13.7864C2.61425 14.7085 4.19058 15.198 5.80055 15.1964C11.2498 15.1964 14.2297 10.4167 14.2297 6.27145C14.2297 6.13645 14.2262 5.99994 14.2205 5.86645C14.8005 5.42257 15.3011 4.87271 15.6988 4.24269L15.6981 4.24195Z" fill="#696969"/>
</svg>
