<svg width="17" height="18" viewBox="0 0 17 18" fill="none" xmlns="http://www.w3.org/2000/svg">
<path d="M15.2596 4.8735C15.5834 6.21 15.5834 9 15.5834 9C15.5834 9 15.5834 11.79 15.2596 13.1265C15.0797 13.8653 14.5534 14.4465 13.8869 14.643C12.6764 15 8.50002 15 8.50002 15C8.50002 15 4.32581 15 3.11315 14.643C2.44377 14.4435 1.91819 13.863 1.7404 13.1265C1.41669 11.79 1.41669 9 1.41669 9C1.41669 9 1.41669 6.21 1.7404 4.8735C1.92031 4.13475 2.4466 3.5535 3.11315 3.357C4.32581 3 8.50002 3 8.50002 3C8.50002 3 12.6764 3 13.8869 3.357C14.5563 3.5565 15.0819 4.137 15.2596 4.8735ZM7.08335 11.625L11.3334 9L7.08335 6.375V11.625Z" fill="#696969"/>
</svg>
